<svg xmlns="http://www.w3.org/2000/svg" viewBox="0 0 566.93 566.93"><defs><style>.cls-1{fill:#438dbb;}.cls-2{fill:#25abfe;}.cls-3{fill:#ff8b00;}.cls-4{fill:#cd7613;}.cls-5{fill:#fae92b;}.cls-6{fill:#eb68a0;}.cls-7{fill:#93c01f;}</style></defs><title>Logofinal_III</title><g id="bildmarke"><g id="Bildmarke-2" data-name="Bildmarke"><g id="H_right"><path class="cls-1" d="M411.25,266.8v16c-.54-.6-1.11-1.19-1.69-1.78a45.23,45.23,0,0,0-64,0l-14.37,14.37v-16L345.6,265a45.25,45.25,0,0,1,64,0l.67.71C410.57,266.08,410.92,266.43,411.25,266.8Z"/><path class="cls-2" d="M409.56,281.05a45.23,45.23,0,0,0-64,0l-14.37,14.37V418.68h80V282.83C410.71,282.23,410.14,281.64,409.56,281.05Z"/><path class="cls-2" d="M411.25,149.25V227c-32.77-16.77-61.64-3.94-80,7.67l.13-85.42Z"/></g><g id="H_left"><path class="cls-2" d="M250.26,237.51V148.25h-80l.17,46.56,0,21.37,1.75,12.3-1.76.25V240l6.52-7.14L193.46,248l-2.39,2.63,2.84,2.58-15.14,16.58-8.36-7.63v-4.81l0-.05-.06,69.56,0,40h0v51.89h80V265.46l-12.72-2.33.9-5-1.35-.25,4-22.08Zm-63.79-2.72-.33-7.39-4.11.18-.72-15.94,15.94-.73.34,7.4,4.1-.19.73,15.95Zm48.64,2,1.7,6L218.57,248l-.82,4.46,1.35.25-3.78,20.6-20.6-3.78.91-5-1.35-.24,3.78-20.61,16.53,3-5.51-19.39,4.26-1.21-1.7-6L233.23,214l6.14,21.59Z"/></g><g id="Infinity"><path class="cls-3" d="M436.92,347.36c29-40.26-22.51-77.5-22.51-77.5l-.14.07c-1-1-2-2.07-3-3.13-.33-.37-.68-.72-1-1.08l-.67-.71a45.25,45.25,0,0,0-64,0l-14.37,14.37L313.75,297l-22.62-23.11,31.53-31.79a79.37,79.37,0,0,1,8.57-7.41h0c18.37-11.61,47.24-24.44,80-7.67a77.63,77.63,0,0,1,21.25,15.08c15.17,15.17,26.91,35,26.91,54.92C459.41,315.42,454.65,328.51,436.92,347.36Z"/><path class="cls-3" d="M284.32,326.59,259.16,351.9a79.79,79.79,0,0,1-8.9,7.66V314.94L262,303.18Z"/><path class="cls-3" d="M170.3,326.83l0,40h0a77.17,77.17,0,0,1-20.88-14.89c-.83-.82-1.54-1.71-2.32-2.57l17.39-31.06a44.24,44.24,0,0,0,5.81,8.49Z"/><path class="cls-4" d="M436.92,347.36q-2.09,2.22-4.42,4.56c-6.37,6.37-13.57,12.46-21.25,16.16v-39.8c20.43-20.43,25.45-34.42,3-58.35l.14-.07S465.93,307.1,436.92,347.36Z"/><polygon class="cls-4" points="290.52 320.35 284.32 326.59 262.02 303.18 267.48 297.72 290.52 320.35"/><path class="cls-3" d="M331.23,314.85v44.71a82.92,82.92,0,0,1-8.57-7.64l-32.14-31.57-23-22.63-12.25-12,24-24,11.91,12.17L313.75,297Z"/></g><g id="Shadows"><polygon class="cls-1" points="218.57 247.99 218.66 247.49 214.59 246.74 209.08 227.35 213.34 226.14 217.78 241.73 235.11 236.81 236.81 242.8 218.57 247.99"/><polygon class="cls-1" points="219.1 252.7 215.32 273.3 194.72 269.52 195.63 264.56 214.88 268.09 217.75 252.45 219.1 252.7"/><polygon class="cls-1" points="202.42 234.07 186.47 234.79 186.14 227.4 197.98 226.86 197.59 218.31 201.69 218.12 202.42 234.07"/><polygon class="cls-1" points="193.91 253.18 178.77 269.76 170.41 262.13 170.41 257.32 178.33 264.55 191.07 250.6 193.91 253.18"/><polygon class="cls-1" points="250.26 260.33 250.26 265.46 237.54 263.13 238.44 258.17 250.26 260.33"/></g><g id="PostIts"><polygon class="cls-5" points="263.22 239.88 259.17 261.97 250.41 260.36 250.26 260.33 238.44 258.17 237.09 257.92 241.14 235.84 250.26 237.51 263.22 239.88"/><polygon class="cls-6" points="172.14 228.48 170.38 228.73 159.57 230.27 157.78 217.7 170.35 215.91 170.39 216.18 172.14 228.48"/><polygon class="cls-7" points="239.37 235.59 235.11 236.81 217.78 241.73 213.34 226.14 211.64 220.14 233.23 214 239.37 235.59"/><polygon class="cls-6" points="218.66 247.49 218.57 247.99 217.75 252.45 214.88 268.09 195.63 264.56 194.28 264.32 198.06 243.71 214.59 246.74 218.66 247.49"/><polygon class="cls-3" points="193.46 247.97 191.07 250.6 178.33 264.55 170.41 257.32 170.36 257.27 161.75 249.42 170.37 239.98 176.89 232.84 193.46 247.97"/><rect class="cls-2" x="119.87" y="315.02" width="22.45" height="22.45" transform="translate(-14.68 6.29) rotate(-2.6)"/><polygon class="cls-5" points="197.98 226.86 186.14 227.4 182.03 227.58 181.31 211.64 197.25 210.91 197.59 218.31 197.98 226.86"/><rect class="cls-2" x="144.69" y="263.88" width="20.94" height="20.94" transform="translate(-124.84 419.06) rotate(-87.84)"/><rect class="cls-7" x="137.57" y="295.51" width="16.39" height="16.39" transform="translate(-183.45 375.14) rotate(-76.61)"/><rect class="cls-5" x="130.87" y="231.62" width="22.45" height="22.45" transform="matrix(0.18, -0.98, 0.98, 0.18, -122.38, 338.84)"/><rect class="cls-6" x="111.83" y="271.5" width="20.94" height="20.94" transform="translate(-155.67 150.83) rotate(-41.3)"/></g></g></g></svg>