<svg xmlns="http://www.w3.org/2000/svg" viewBox="0 0 566.93 566.93"><defs><style>.cls-1{fill:#25abfe;}.cls-2{fill:#438dbb;}.cls-3{fill:#387499;}.cls-4{fill:#ff8b00;}.cls-5{fill:#cd7613;}.cls-6{fill:#a6610e;}.cls-7{fill:#fae92b;}.cls-8{fill:#eb68a0;}.cls-9{fill:#93c01f;}.cls-10{font-size:15px;font-family:MyriadPro-Regular, Myriad Pro;}.cls-11{letter-spacing:-0.01em;}.cls-12{letter-spacing:-0.01em;}</style></defs><title>Logofinal_III</title><g id="farben"><rect class="cls-1" x="48.26" y="75.03" width="349.42" height="54.88"/><rect class="cls-2" x="48.26" y="105.03" width="349.42" height="54.88"/><rect class="cls-3" x="48.26" y="135.03" width="349.42" height="54.88"/><rect class="cls-4" x="48.26" y="215.03" width="348.62" height="54.88"/><rect class="cls-5" x="48.26" y="245.03" width="348.62" height="54.88"/><rect class="cls-6" x="48.26" y="275.03" width="348.62" height="54.88"/><rect class="cls-7" x="48.26" y="425.03" width="347.81" height="27.44"/><rect class="cls-8" x="48.26" y="455.03" width="347.81" height="27.44"/><rect class="cls-9" x="48.26" y="485.03" width="347.81" height="27.44"/><text class="cls-10" transform="translate(406.5 89.16)">25ab<tspan class="cls-11" x="31.15" y="0">f</tspan><tspan x="35.34" y="0">e</tspan></text><text class="cls-10" transform="translate(406.5 129.16)">438dbb</text><text class="cls-10" transform="translate(406.5 169.16)">387499</text><text class="cls-10" transform="translate(406.5 229.16)">ff8b00</text><text class="cls-10" transform="translate(406.5 269.16)"><tspan class="cls-12">c</tspan><tspan x="6.63" y="0">d7613</tspan></text><text class="cls-10" transform="translate(406.5 309.16)">a6610e</text><text class="cls-10" transform="translate(406.5 439.16)">fae92b</text><text class="cls-10" transform="translate(406.5 471.16)">eb68a0</text><text class="cls-10" transform="translate(406.5 501.16)">93c01f</text></g></svg>