<svg xmlns="http://www.w3.org/2000/svg" viewBox="0 0 566.93 566.93"><defs><style>.cls-1{fill:#1d1d1b;}.cls-2{fill:#ff8b00;}.cls-3{fill:#fff;}.cls-4{fill:#438dbb;}.cls-5{fill:#25abfe;}.cls-6{fill:#cd7613;}.cls-7{fill:#fae92b;}.cls-8{fill:#eb68a0;}.cls-9{fill:#93c01f;}</style></defs><title>Logofinal_III</title><g id="wortmarke_farbe_art_of" data-name="wortmarke+farbe_art_of"><g id="the_art_of" data-name="the art of"><path class="cls-1" d="M186,329.67v3.15h2.29v.3H186v6.42h-.36v-6.42H184v-.3h1.6v-3.15Z"/><path class="cls-1" d="M195.21,333.11a2.07,2.07,0,0,1,.61,1.47v5h-.36v-4.93a1.74,1.74,0,0,0-1.8-1.76,2.93,2.93,0,0,0-1.41.36,2.76,2.76,0,0,0-1.08,1,2.4,2.4,0,0,0-.41,1.37v4h-.36V325.87h.34v8.45a2.88,2.88,0,0,1,1.15-1.28,3.4,3.4,0,0,1,1.81-.5A2,2,0,0,1,195.21,333.11Z"/><path class="cls-1" d="M203.29,339.11a3.15,3.15,0,0,0,1-.64l.23.25a4,4,0,0,1-1.13.68,3.48,3.48,0,0,1-1.32.25,3.59,3.59,0,0,1-1.81-.47,3.47,3.47,0,0,1-1.29-1.29,3.51,3.51,0,0,1-.47-1.8,3.46,3.46,0,0,1,.48-1.8,3.57,3.57,0,0,1,1.29-1.3,3.52,3.52,0,0,1,1.8-.48,3,3,0,0,1,1.9.63,4,4,0,0,1,1.22,1.69l-6.09,2.47a3.31,3.31,0,0,0,1.14,1.47,3,3,0,0,0,1.83.57A3.29,3.29,0,0,0,203.29,339.11Zm-2.83-5.84a3.13,3.13,0,0,0-1.16,1.18,3.19,3.19,0,0,0-.43,1.64,2.86,2.86,0,0,0,.13.91l5.75-2.33a3.64,3.64,0,0,0-1.12-1.33,2.59,2.59,0,0,0-1.57-.51A3.08,3.08,0,0,0,200.46,333.27Z"/><path class="cls-1" d="M219.59,332.67v6.87h-.34v-2a3.33,3.33,0,0,1-1.28,1.49,3.64,3.64,0,0,1-2,.58,3.56,3.56,0,0,1-1.78-.47,3.62,3.62,0,0,1-1.29-1.29,3.49,3.49,0,0,1-.47-1.79,3.69,3.69,0,0,1,.48-1.91,3.23,3.23,0,0,1,1.3-1.24,3.89,3.89,0,0,1,1.81-.42,3.31,3.31,0,0,1,1.93.59,3.55,3.55,0,0,1,1.29,1.53l.07-2Zm-2,6.27a3.12,3.12,0,0,0,1.17-1.11,3,3,0,0,0,.44-1.58v-.74a3.23,3.23,0,0,0-1.14-1.9,3.14,3.14,0,0,0-2.09-.78,3.42,3.42,0,0,0-1.63.4,3,3,0,0,0-1.16,1.15,3.42,3.42,0,0,0-.43,1.71,3.16,3.16,0,0,0,.44,1.63,3.23,3.23,0,0,0,1.17,1.18,3.12,3.12,0,0,0,1.61.44A3.3,3.3,0,0,0,217.64,338.94Z"/><path class="cls-1" d="M224.48,333.09a3.57,3.57,0,0,1,1.84-.55v.33a3.55,3.55,0,0,0-1.47.38,2.79,2.79,0,0,0-1.08,1,2.47,2.47,0,0,0-.39,1.37v4H223v-6.87h.27l.06,1.85A2.79,2.79,0,0,1,224.48,333.09Z"/><path class="cls-1" d="M229.9,329.67v3.15h2.28v.3H229.9v6.42h-.36v-6.42h-1.6v-.3h1.6v-3.15Z"/><path class="cls-1" d="M239.56,334.29a3.52,3.52,0,0,1,1.3-1.3,3.45,3.45,0,0,1,1.79-.48,3.6,3.6,0,0,1,3.12,1.78,3.46,3.46,0,0,1,.48,1.8,3.52,3.52,0,0,1-.48,1.8,3.66,3.66,0,0,1-4.92,1.29,3.33,3.33,0,0,1-1.3-1.28,3.59,3.59,0,0,1-.47-1.81A3.46,3.46,0,0,1,239.56,334.29Zm.31,3.43a3.19,3.19,0,0,0,2.78,1.62,3.09,3.09,0,0,0,1.61-.44,3.23,3.23,0,0,0,1.17-1.18,3.16,3.16,0,0,0,.44-1.63,3.21,3.21,0,0,0-.44-1.63,3.26,3.26,0,0,0-1.17-1.19,3.09,3.09,0,0,0-1.61-.44,3,3,0,0,0-1.63.47,3.28,3.28,0,0,0-1.16,1.21,3.22,3.22,0,0,0-.42,1.58A3.15,3.15,0,0,0,239.87,337.72Z"/><path class="cls-1" d="M249.31,333.05h-1.17v-.32h1.17v-3.82a4.42,4.42,0,0,1,.49-2.43,1.71,1.71,0,0,1,1.51-.7,2,2,0,0,1,.73.15l-.17.25a1.08,1.08,0,0,0-.54-.12,1.38,1.38,0,0,0-1.26.62,4.35,4.35,0,0,0-.39,2.16v3.89H252v.32h-2.36v6.49h-.37Z"/><path class="cls-1" d="M265.08,333a3.33,3.33,0,0,1,1.29,1.29,3.46,3.46,0,0,1,.47,1.8,3.71,3.71,0,0,1-.47,1.93,3,3,0,0,1-1.28,1.22,4,4,0,0,1-1.8.41,3.44,3.44,0,0,1-1.94-.59,3.76,3.76,0,0,1-1.31-1.52v2h-.37V325.87H260v8.78a3.46,3.46,0,0,1,1.29-1.54,3.5,3.5,0,0,1,2-.58A3.41,3.41,0,0,1,265.08,333Zm.54,5.44a3.27,3.27,0,0,0,.86-2.35,3.35,3.35,0,0,0-.4-1.62,3.08,3.08,0,0,0-1.13-1.19,3.28,3.28,0,0,0-4.91,2.24v.86a2.66,2.66,0,0,0,.44,1.43,3.4,3.4,0,0,0,1.18,1.11,3.2,3.2,0,0,0,1.61.42A3.11,3.11,0,0,0,265.62,338.44Z"/><path class="cls-1" d="M275,332.67v6.87h-.3l0-1.8a2.87,2.87,0,0,1-1.15,1.38,3.19,3.19,0,0,1-1.81.56,2,2,0,0,1-1.51-.57,2.11,2.11,0,0,1-.61-1.48v-5h.36v4.91a1.81,1.81,0,0,0,.51,1.26,1.9,1.9,0,0,0,1.32.52,2.83,2.83,0,0,0,1.4-.36,2.77,2.77,0,0,0,1.06-1,2.44,2.44,0,0,0,.41-1.39v-4Z"/><path class="cls-1" d="M278.59,339.47a2.26,2.26,0,0,1-.95-.66l.22-.22a2,2,0,0,0,.79.57,2.89,2.89,0,0,0,1.11.22A2.06,2.06,0,0,0,281,339a1.4,1.4,0,0,0,.53-1.21,1.24,1.24,0,0,0-.27-.83,2,2,0,0,0-.64-.48,8.73,8.73,0,0,0-1-.38,4,4,0,0,1-1.25-.67,1.35,1.35,0,0,1-.44-1.1,1.61,1.61,0,0,1,.55-1.28,2,2,0,0,1,1.32-.46,2.86,2.86,0,0,1,1,.2,2.23,2.23,0,0,1,.88.6l-.2.24a1.68,1.68,0,0,0-.75-.53,2.57,2.57,0,0,0-.9-.18,1.7,1.7,0,0,0-1.05.35,1.19,1.19,0,0,0-.49,1,1.1,1.1,0,0,0,.39.91,4.2,4.2,0,0,0,1.15.58c.49.17.87.31,1.13.43a2,2,0,0,1,.68.54,1.41,1.41,0,0,1,.29.94,2,2,0,0,1-.55,1.46,2.18,2.18,0,0,1-1.59.53A3.49,3.49,0,0,1,278.59,339.47Z"/><path class="cls-1" d="M284.51,330.23a.41.41,0,0,1,.3-.12.4.4,0,0,1,0,.8.37.37,0,0,1-.29-.13.35.35,0,0,1-.13-.27A.38.38,0,0,1,284.51,330.23Zm.46,2.44v6.87h-.36v-6.87Z"/><path class="cls-1" d="M293.2,333.11a2.11,2.11,0,0,1,.61,1.47v5h-.37v-4.93a1.74,1.74,0,0,0-1.79-1.76,3.05,3.05,0,0,0-1.43.35,2.83,2.83,0,0,0-1.07,1,2.5,2.5,0,0,0-.41,1.4v4h-.36v-6.87h.27l.06,1.84a2.8,2.8,0,0,1,1.14-1.44,3.34,3.34,0,0,1,1.83-.53A2.06,2.06,0,0,1,293.2,333.11Z"/><path class="cls-1" d="M301.27,339.11a3,3,0,0,0,1-.64l.24.25a3.88,3.88,0,0,1-1.14.68,3.43,3.43,0,0,1-1.31.25,3.52,3.52,0,0,1-3.58-3.56,3.46,3.46,0,0,1,.48-1.8,3.6,3.6,0,0,1,1.3-1.3,3.46,3.46,0,0,1,1.8-.48,3,3,0,0,1,1.89.63,4,4,0,0,1,1.23,1.69l-6.1,2.47a3.31,3.31,0,0,0,1.14,1.47,3,3,0,0,0,1.84.57A3.24,3.24,0,0,0,301.27,339.11Zm-2.83-5.84a3.2,3.2,0,0,0-1.16,1.18,3.29,3.29,0,0,0-.43,1.64,3.17,3.17,0,0,0,.13.91l5.75-2.33a3.62,3.62,0,0,0-1.11-1.33,2.61,2.61,0,0,0-1.57-.51A3.12,3.12,0,0,0,298.44,333.27Z"/><path class="cls-1" d="M305.92,339.47a2.2,2.2,0,0,1-.95-.66l.21-.22a2,2,0,0,0,.79.57,3,3,0,0,0,1.12.22,2.08,2.08,0,0,0,1.27-.39,1.4,1.4,0,0,0,.53-1.21,1.24,1.24,0,0,0-.28-.83,1.83,1.83,0,0,0-.63-.48,9.43,9.43,0,0,0-1.05-.38,4.07,4.07,0,0,1-1.26-.67,1.35,1.35,0,0,1-.43-1.1,1.58,1.58,0,0,1,.55-1.28,2,2,0,0,1,1.32-.46,2.86,2.86,0,0,1,1,.2,2.3,2.3,0,0,1,.88.6l-.2.24a1.77,1.77,0,0,0-.76-.53,2.56,2.56,0,0,0-.89-.18,1.75,1.75,0,0,0-1.06.35,1.21,1.21,0,0,0-.49,1,1.1,1.1,0,0,0,.39.91,4.28,4.28,0,0,0,1.16.58c.49.17.87.31,1.13.43a2,2,0,0,1,.68.54,1.47,1.47,0,0,1,.29.94,2,2,0,0,1-.55,1.46,2.18,2.18,0,0,1-1.59.53A3.44,3.44,0,0,1,305.92,339.47Z"/><path class="cls-1" d="M312.16,339.47a2.26,2.26,0,0,1-1-.66l.22-.22a2,2,0,0,0,.79.57,2.89,2.89,0,0,0,1.11.22,2.06,2.06,0,0,0,1.27-.39,1.4,1.4,0,0,0,.53-1.21,1.24,1.24,0,0,0-.27-.83,2,2,0,0,0-.64-.48,8.73,8.73,0,0,0-1.05-.38,4,4,0,0,1-1.25-.67,1.35,1.35,0,0,1-.44-1.1A1.58,1.58,0,0,1,312,333a2,2,0,0,1,1.32-.46,2.86,2.86,0,0,1,1,.2,2.23,2.23,0,0,1,.88.6l-.2.24a1.68,1.68,0,0,0-.75-.53,2.57,2.57,0,0,0-.9-.18,1.75,1.75,0,0,0-1.06.35,1.21,1.21,0,0,0-.48,1,1.1,1.1,0,0,0,.39.91,4.05,4.05,0,0,0,1.15.58c.49.17.87.31,1.13.43a2,2,0,0,1,.68.54,1.41,1.41,0,0,1,.29.94,2,2,0,0,1-.55,1.46,2.18,2.18,0,0,1-1.59.53A3.44,3.44,0,0,1,312.16,339.47Z"/><path class="cls-1" d="M323.87,339.47a2.23,2.23,0,0,1-1-.66l.22-.22a2,2,0,0,0,.79.57,2.94,2.94,0,0,0,1.12.22,2.1,2.1,0,0,0,1.27-.39,1.39,1.39,0,0,0,.52-1.21,1.24,1.24,0,0,0-.27-.83,1.83,1.83,0,0,0-.63-.48,9.73,9.73,0,0,0-1.06-.38,4.12,4.12,0,0,1-1.25-.67,1.35,1.35,0,0,1-.44-1.1,1.59,1.59,0,0,1,.56-1.28,2,2,0,0,1,1.31-.46,2.77,2.77,0,0,1,1,.2,2.16,2.16,0,0,1,.88.6l-.2.24a1.68,1.68,0,0,0-.75-.53,2.57,2.57,0,0,0-.9-.18,1.74,1.74,0,0,0-1.05.35,1.19,1.19,0,0,0-.49,1,1.1,1.1,0,0,0,.39.91,4.2,4.2,0,0,0,1.15.58c.5.17.88.31,1.14.43a2.06,2.06,0,0,1,.68.54,1.47,1.47,0,0,1,.29.94,2,2,0,0,1-.56,1.46,2.16,2.16,0,0,1-1.58.53A3.44,3.44,0,0,1,323.87,339.47Z"/><path class="cls-1" d="M329.64,334.29a3.57,3.57,0,0,1,1.29-1.3,3.61,3.61,0,0,1,3.6,0,3.55,3.55,0,0,1,1.79,3.1,3.52,3.52,0,0,1-1.79,3.09,3.61,3.61,0,0,1-1.8.47,3.65,3.65,0,0,1-1.81-.47,3.24,3.24,0,0,1-1.29-1.28,3.6,3.6,0,0,1,0-3.61Zm.3,3.43a3.23,3.23,0,0,0,1.17,1.18,3.18,3.18,0,0,0,3.23,0,3.23,3.23,0,0,0,1.17-1.18,3.15,3.15,0,0,0,.43-1.63,3.21,3.21,0,0,0-.43-1.63,3.26,3.26,0,0,0-1.17-1.19,3.12,3.12,0,0,0-1.61-.44,3,3,0,0,0-1.63.47,3.32,3.32,0,0,0-1.58,2.79A3.24,3.24,0,0,0,329.94,337.72Z"/><path class="cls-1" d="M339.39,333.05h-1.18v-.32h1.18v-3.82a4.52,4.52,0,0,1,.48-2.43,1.71,1.71,0,0,1,1.51-.7,2,2,0,0,1,.73.15l-.16.25a1.15,1.15,0,0,0-.55-.12,1.38,1.38,0,0,0-1.26.62,4.35,4.35,0,0,0-.39,2.16v3.89h2.36v.32h-2.36v6.49h-.36Z"/><path class="cls-1" d="M345.36,329.67v3.15h2.28v.3h-2.28v6.42H345v-6.42H343.4v-.3H345v-3.15Z"/><path class="cls-1" d="M359.44,332.67,356.19,340l-2.2-5-2,5-3.24-7.29h.36l2.9,6.51,1.83-4.57-.87-1.94h.37l2.9,6.54,2.87-6.54Z"/><path class="cls-1" d="M368,332.67v6.87h-.34v-2a3.27,3.27,0,0,1-1.28,1.49,3.64,3.64,0,0,1-2,.58,3.52,3.52,0,0,1-3.06-1.76,3.4,3.4,0,0,1-.48-1.79,3.69,3.69,0,0,1,.49-1.91,3.27,3.27,0,0,1,1.29-1.24,3.93,3.93,0,0,1,1.82-.42,3.3,3.3,0,0,1,1.92.59,3.55,3.55,0,0,1,1.29,1.53l.07-2Zm-1.95,6.27a3.12,3.12,0,0,0,1.17-1.11,3,3,0,0,0,.44-1.58v-.74a3.21,3.21,0,0,0-1.13-1.9,3.16,3.16,0,0,0-2.1-.78,3.41,3.41,0,0,0-1.62.4,2.92,2.92,0,0,0-1.16,1.15,3.32,3.32,0,0,0-.43,1.71,3.15,3.15,0,0,0,.43,1.63,3.23,3.23,0,0,0,1.17,1.18,3.12,3.12,0,0,0,1.61.44A3.3,3.3,0,0,0,366.05,338.94Z"/><path class="cls-1" d="M372.9,333.09a3.54,3.54,0,0,1,1.84-.55l0,.33a3.64,3.64,0,0,0-1.47.38,2.69,2.69,0,0,0-1.07,1,2.4,2.4,0,0,0-.4,1.37v4h-.36v-6.87h.27l.05,1.85A2.81,2.81,0,0,1,372.9,333.09Z"/><path class="cls-1" d="M381,339.11a3,3,0,0,0,1-.64l.24.25a3.88,3.88,0,0,1-1.14.68,3.39,3.39,0,0,1-1.31.25,3.52,3.52,0,0,1-3.58-3.56,3.46,3.46,0,0,1,.48-1.8A3.68,3.68,0,0,1,378,333a3.49,3.49,0,0,1,1.8-.48,3,3,0,0,1,1.89.63,4,4,0,0,1,1.23,1.69l-6.1,2.47a3.26,3.26,0,0,0,1.15,1.47,3,3,0,0,0,1.83.57A3.24,3.24,0,0,0,381,339.11Zm-2.83-5.84a3.2,3.2,0,0,0-1.16,1.18,3.28,3.28,0,0,0-.42,1.64,3.18,3.18,0,0,0,.12.91l5.76-2.33a3.74,3.74,0,0,0-1.12-1.33,2.61,2.61,0,0,0-1.57-.51A3.12,3.12,0,0,0,378.19,333.27Z"/></g><g id="HeimeshoffIT"><path class="cls-1" d="M153.84,256.84v7.63H134.41V273h17.2v7.63h-17.2v8.67H154.6V297H126.51V256.84Z"/><path class="cls-1" d="M170.66,256.84V297h-7.89V256.84Z"/><path class="cls-1" d="M222.27,255.21V297h-7.9V277.83l-13.06,18.59h-.11L188.63,279V297H181V255.21h.06L201.36,284l20.8-28.83Z"/><path class="cls-1" d="M259.94,256.84v7.63H240.5V273h17.21v7.63H240.5v8.67h20.2V297H232.61V256.84Z"/><path class="cls-1" d="M281.17,263.65a6.86,6.86,0,0,0-4.06,1,3.58,3.58,0,0,0-1.44,3.11,4.08,4.08,0,0,0,2.1,3.35,25.84,25.84,0,0,0,5.58,2.75,23.22,23.22,0,0,1,4.84,2.37,10.67,10.67,0,0,1,3.35,3.68,11.92,11.92,0,0,1,1.33,5.94,10.9,10.9,0,0,1-1.6,5.76,11.22,11.22,0,0,1-4.71,4.19,16.34,16.34,0,0,1-7.41,1.56,24.65,24.65,0,0,1-7.13-1.07,22.06,22.06,0,0,1-6.58-3.24l3.48-6.16a19.06,19.06,0,0,0,4.74,2.51,14.1,14.1,0,0,0,4.79,1,8.58,8.58,0,0,0,4.35-1.06,3.7,3.7,0,0,0,1.85-3.47q0-3.11-5.82-5.39a51.85,51.85,0,0,1-5.72-2.62,11.71,11.71,0,0,1-3.95-3.6,10,10,0,0,1-1.66-5.88,10.83,10.83,0,0,1,3.41-8.34,13.78,13.78,0,0,1,9.06-3.44,23.72,23.72,0,0,1,7.46,1,25.53,25.53,0,0,1,5.82,2.86l-3,6.05C286.77,264.62,283.74,263.65,281.17,263.65Z"/><path class="cls-1" d="M334.3,297h-7.9v-16.3H308.49V297H300.6V256.84h7.89V273H326.4V256.84h7.9Z"/><path class="cls-1" d="M344.94,266.76a20.77,20.77,0,0,1,7.46-7.55,19.94,19.94,0,0,1,20.41,0,21.22,21.22,0,0,1,7.51,7.55,20,20,0,0,1,0,20.44,20.84,20.84,0,0,1-7.51,7.44,20.3,20.3,0,0,1-20.44,0,20.47,20.47,0,0,1-7.43-7.44,20.37,20.37,0,0,1,0-20.44ZM352,283.39a12.53,12.53,0,0,0,4.51,4.66,12.15,12.15,0,0,0,6.35,1.72,11.5,11.5,0,0,0,6.15-1.72,12.14,12.14,0,0,0,4.35-4.64,14,14,0,0,0-.05-13,12.5,12.5,0,0,0-4.44-4.66,12.2,12.2,0,0,0-12.46,0,12.5,12.5,0,0,0-4.44,4.66,13.28,13.28,0,0,0-1.63,6.54A12.85,12.85,0,0,0,352,283.39Z"/><path class="cls-1" d="M416.06,256.84v7.63H398.91v9.11h14.86v7.63H398.91V297H391V256.84Z"/><path class="cls-1" d="M448.72,256.84v7.63H431.57v9.11h14.87v7.63H431.57V297h-7.89V256.84Z"/><g id="IT_Postit"><polyline class="cls-2" points="458.84 256.08 499.01 257.5 497.58 297.73 457.42 296.3 458.84 256.08"/><path class="cls-3" d="M472.5,266.48,472.42,287l-4,0,.07-20.55Z"/><path class="cls-3" d="M490.24,266.55l0,3.91-5,0-.06,16.64h-4.05l.06-16.65h-4.79V266.5Z"/></g></g><g id="Bildmarke-2" data-name="Bildmarke"><g id="H_right"><path class="cls-4" d="M113.14,274.34v2.39l-.25-.27a6.73,6.73,0,0,0-9.52,0l-2.14,2.14v-2.39l2.14-2.14a6.75,6.75,0,0,1,9.52,0l.1.11Z"/><path class="cls-5" d="M112.89,276.46a6.73,6.73,0,0,0-9.52,0l-2.14,2.14V297h11.91V276.73Z"/><path class="cls-5" d="M113.14,256.84v11.57c-4.88-2.49-9.17-.58-11.91,1.15l0-12.72Z"/></g><g id="H_left"><path class="cls-5" d="M89.17,270V256.69H77.26l0,6.93v3.18l.26,1.83-.26,0v1.68l1-1.07,2.47,2.26-.36.39.42.38-2.25,2.47-1.25-1.14v-.71h0v16.31h0V297H89.17V274.14l-1.89-.35.13-.73-.2,0,.61-3.29Zm-9.49-.41-.05-1.1-.62,0-.1-2.37,2.37-.11,0,1.1.61,0,.11,2.38Zm7.24.3.25.9-2.71.77-.13.66.2,0L84,275.31l-3.07-.56L81,274l-.2,0,.56-3.07,2.46.45L83,268.47l.64-.18-.26-.9,3.22-.91.91,3.21Z"/></g><g id="Infinity"><path class="cls-2" d="M117,286.33c4.31-6-3.36-11.53-3.36-11.53h0c-.14-.16-.29-.31-.45-.47l-.15-.16-.1-.11a6.75,6.75,0,0,0-9.52,0l-2.14,2.14-2.6,2.62-3.37-3.44,4.69-4.73a11,11,0,0,1,1.28-1.1h0c2.74-1.73,7-3.64,11.91-1.15a11.69,11.69,0,0,1,3.17,2.25c2.26,2.26,4,5.22,4,8.18C120.31,281.58,119.61,283.53,117,286.33Z"/><path class="cls-2" d="M94.24,283.24,90.5,287a11,11,0,0,1-1.33,1.14v-6.64l1.75-1.75Z"/><path class="cls-2" d="M77.27,283.28v6h0a12.28,12.28,0,0,1-1.63-1A10.78,10.78,0,0,1,74.15,287c-.12-.12-.23-.25-.35-.38L76.39,282a6.66,6.66,0,0,0,.87,1.27Z"/><path class="cls-6" d="M117,286.33c-.21.23-.43.45-.66.68a12.11,12.11,0,0,1-3.17,2.41v-5.93c3-3,3.79-5.12.45-8.68h0S121.28,280.34,117,286.33Z"/><polygon class="cls-6" points="95.17 282.31 94.25 283.24 90.92 279.76 91.74 278.94 95.17 282.31"/><path class="cls-2" d="M101.23,281.49v6.66A11.36,11.36,0,0,1,100,287l-4.78-4.7-3.43-3.37-1.83-1.79,3.58-3.57,1.77,1.81,3.37,3.44Z"/></g><g id="Shadows"><polygon class="cls-4" points="84.45 271.54 84.47 271.46 83.86 271.35 83.04 268.47 83.68 268.29 84.34 270.61 86.92 269.88 87.17 270.77 84.45 271.54"/><polygon class="cls-4" points="84.53 272.24 83.97 275.31 80.9 274.75 81.04 274.01 83.91 274.53 84.33 272.2 84.53 272.24"/><polygon class="cls-4" points="82.05 269.47 79.68 269.57 79.63 268.47 81.39 268.39 81.33 267.12 81.94 267.09 82.05 269.47"/><polygon class="cls-4" points="80.78 272.31 78.53 274.78 77.28 273.64 77.28 272.93 78.46 274 80.36 271.93 80.78 272.31"/><polygon class="cls-4" points="89.17 273.38 89.17 274.14 87.28 273.79 87.41 273.06 89.17 273.38"/></g><g id="PostIts"><polygon class="cls-7" points="91.1 270.33 90.5 273.62 89.2 273.38 89.17 273.38 87.41 273.06 87.21 273.02 87.82 269.73 89.17 269.98 91.1 270.33"/><polygon class="cls-8" points="77.54 268.63 77.28 268.67 75.67 268.9 75.4 267.03 77.28 266.76 77.28 266.8 77.54 268.63"/><polygon class="cls-9" points="87.55 269.69 86.92 269.88 84.34 270.61 83.68 268.29 83.42 267.39 86.64 266.48 87.55 269.69"/><polygon class="cls-8" points="84.47 271.46 84.45 271.54 84.33 272.2 83.91 274.53 81.04 274.01 80.84 273.97 81.4 270.9 83.86 271.35 84.47 271.46"/><polygon class="cls-2" points="80.72 271.54 80.36 271.93 78.46 274 77.28 272.93 77.28 272.92 76 271.75 77.28 270.35 78.25 269.28 80.72 271.54"/><rect class="cls-5" x="69.76" y="281.52" width="3.34" height="3.34" transform="translate(-12.79 3.54) rotate(-2.6)"/><polygon class="cls-7" points="81.39 268.39 79.63 268.47 79.02 268.5 78.91 266.13 81.28 266.02 81.33 267.12 81.39 268.39"/><rect class="cls-5" x="73.45" y="273.91" width="3.12" height="3.12" transform="translate(-203.08 340.04) rotate(-87.84)"/><rect class="cls-9" x="72.39" y="278.61" width="2.44" height="2.44" transform="translate(-215.66 286.62) rotate(-76.61)"/><rect class="cls-7" x="71.4" y="269.1" width="3.34" height="3.34" transform="translate(-206.44 293.84) rotate(-79.62)"/><rect class="cls-8" x="68.56" y="275.04" width="3.12" height="3.12" transform="translate(-165.1 115.06) rotate(-41.3)"/></g></g></g></svg>